<svg viewBox="0 0 416.13 62.73" xmlns="http://www.w3.org/2000/svg"><g fill="#c52432" transform="translate(-29.19 -6.71)"><path d="m29.19 17.33a305.46 305.46 0 0 0 6.5 50c.81 3.78 6.6 2.18 5.78-1.59a294.88 294.88 0 0 1 -6.28-48.36c-.18-3.85-6.18-3.87-6 0z"/><path d="m36.91 43.93a141.44 141.44 0 0 1 20.27-5.09c3.79-.66 2.18-6.44-1.6-5.78a140.09 140.09 0 0 0 -20.27 5.08c-3.64 1.21-2.08 7 1.6 5.79z"/><path d="m51.94 19.36a212.7 212.7 0 0 0 4.26 33.25c.8 3.78 6.57 2.18 5.8-1.61a203.4 203.4 0 0 1 -4-31.66c-.19-3.84-6.19-3.87-6 0z"/><path d="m94.17 22.6c-9.29-.89-16.39 2-19.09 11.48-2.48 8.77.56 16 9.07 19.61 8 3.44 16.16 2.08 19.54-6.46 3.31-8.23 1.85-17.38-5.54-22.77-3.12-2.28-6.12 2.92-3 5.18 4.41 3.22 5 8.81 3.58 13.73-2 6.82-8.11 7.23-13.56 4.17s-5.86-7.88-3.84-13.27c2.26-6.05 7.24-6.21 12.86-5.67 3.84.37 3.82-5.64 0-6z"/><path d="m111.72 26q5.55 16.08 9.57 32.61c.73 3 4.89 2.68 5.79 0a140.77 140.77 0 0 1 19.28-37.73c2.25-3.15-3-6.15-5.18-3a146.42 146.42 0 0 0 -19.89 39.12h5.79q-4-16.55-9.58-32.62c-1.25-3.63-7-2.07-5.78 1.6z"/><path d="m160.46 39.41c3.87 0 9.69 1.25 12.9-1.6 2.6-2.3 3.91-7.12 3.81-10.49-.23-8-9.68-11.54-16.16-7.71-3.6 2.12-5.49 6.89-6.95 10.59-1.7 4.28-2.78 8.53-1.2 13 3.27 9.22 10 14 19.38 15.36 3.78.54 5.41-5.25 1.6-5.79-4.68-.66-8.73-1.39-11.7-5.41-3.34-4.53-4.89-8.45-2.91-14 .75-2.09 1.84-5.31 3.39-7 2.16-2.35 7.78-3.86 8.55.93 1.17 7.36-6 6.11-10.71 6.09-3.87 0-3.87 6 0 6z"/><path d="m184.76 22.61a142.13 142.13 0 0 0 2.49 34.93c.74 3.79 6.52 2.19 5.78-1.59a136.08 136.08 0 0 1 -2.27-33.34c.2-3.86-5.8-3.85-6 0z"/><path d="m190.76 40c-.12-2.18 6.3-6 7.89-7.25 2.53-2.06 5.82-6 8.95-7 3.67-1.16 2.1-7-1.6-5.79-4.55 1.44-8.53 6-12.15 9-3.46 2.82-9.37 5.92-9.09 11 .21 3.84 6.21 3.86 6 0z"/><path d="m244.85 18.54v41.46c0 3.86 6 3.87 6 0v-41.46c0-3.86-6-3.87-6 0z"/><path d="m246.1 23.14q8.33 9.15 17.52 17.43c2.87 2.58 7.12-1.65 4.24-4.24a246.37 246.37 0 0 1 -17.52-17.44c-2.6-2.86-6.84 1.39-4.24 4.25z"/><path d="m268.34 38.46c-.22-4.92 4.19-10 6.81-13.9q4.26-6.37 9-12.42c2.35-3-1.86-7.28-4.24-4.24-3.84 4.9-7.51 9.92-10.91 15.1-3.07 4.67-6.91 9.58-6.65 15.43.17 3.84 6.17 3.86 6 0z"/><path d="m279.17 9.6a288.58 288.58 0 0 0 6.35 50.72c.82 3.77 6.61 2.18 5.79-1.59a279.23 279.23 0 0 1 -6.14-49.13c-.14-3.85-6.14-3.87-6 0z"/><path d="m314.52 45.47c7.52.18 18.86.34 20.74-9.27 1.59-8.17-7-13.1-14.15-12-8.11 1.28-16.11 7.72-17.11 16.19-1.11 9.75 7.44 15.2 15.15 18.73 3.48 1.6 6.54-3.57 3-5.18-4.11-1.89-9-3.9-11.3-8.11-2.89-5.35.86-10.72 5.37-13.47 3-1.84 14.81-4.68 13.09 2.91-1.29 5.71-10.74 4.3-14.84 4.2-3.86-.09-3.86 5.91 0 6z"/><path d="m370.4 35.83c8.84-7.53 21.12-10.52 32.57-9.73s24 7.45 25.37 20.09c.4 3.79 6.41 3.84 6 0-3.49-32.52-48.87-31-68.18-14.61-2.94 2.51 1.32 6.74 4.24 4.25z"/><path d="m417 50.16c2.87 6.68 12.15 11.89 18.22 15.32a3 3 0 0 0 4.4-1.79 107.63 107.63 0 0 0 5.64-20.34c.66-3.77-5.12-5.39-5.78-1.59a108 108 0 0 1 -5.64 20.34l4.4-1.8c-5.21-2.95-13.59-7.43-16.06-13.17-1.52-3.54-6.69-.49-5.18 3z"/></g></svg>