<svg height="20" viewBox="0 0 20 20" width="20" xmlns="http://www.w3.org/2000/svg"><rect width="20" height="20" rx="5" fill="#c52432"/><path d="m3 17a2 2 0 1 1 2 2 2 2 0 0 1 -2-2zm7-8.94507h1v-.00909a.35757.35757 0 0 1 .37738.54242l-1.34375 2.95184a.3866.3866 0 0 0 .62354.40942l6.34283-4.90368-6.34283-4.90369a.38659.38659 0 0 0 -.62354.40942l1.34375 2.95184a.35757.35757 0 0 1 -.37738.54243v.00909h-.99182l.00012-.02008-.011.00183a6.05607 6.05607 0 0 0 -5.98345 5.96332h-.01385v1.48767a.51232.51232 0 0 0 .51233.51233h.97534a.51232.51232 0 0 0 .51233-.51233v-1.37775h.0083a4.05782 4.05782 0 0 1 3.98877-4.07324" fill="#ffffff"/></svg>
